<mxfile host="app.diagrams.net" modified="2024-01-17T21:14:34.275Z" agent="Mozilla/5.0 (Windows NT 10.0; Win64; x64) AppleWebKit/537.36 (KHTML, like Gecko) Chrome/118.0.0.0 YaBrowser/23.11.0.0 Safari/537.36" etag="0n8CQ9yC--nFNjTzIQeE" version="22.1.21" type="device">
  <diagram name="Страница — 1" id="Z3zOk9n5Y-DZOy8WYQWb">
    <mxGraphModel dx="4167" dy="2130" grid="1" gridSize="10" guides="1" tooltips="1" connect="1" arrows="1" fold="1" page="1" pageScale="1" pageWidth="827" pageHeight="1169" math="0" shadow="0">
      <root>
        <mxCell id="0" />
        <mxCell id="1" parent="0" />
        <mxCell id="Xc-XXmzlWd92s_JF-DMT-8" style="edgeStyle=orthogonalEdgeStyle;rounded=0;orthogonalLoop=1;jettySize=auto;html=1;" edge="1" parent="1" source="Xc-XXmzlWd92s_JF-DMT-4" target="Xc-XXmzlWd92s_JF-DMT-9">
          <mxGeometry relative="1" as="geometry">
            <mxPoint x="330" y="280" as="targetPoint" />
          </mxGeometry>
        </mxCell>
        <mxCell id="Xc-XXmzlWd92s_JF-DMT-4" value="Animal" style="swimlane;fontStyle=1;align=center;verticalAlign=top;childLayout=stackLayout;horizontal=1;startSize=26;horizontalStack=0;resizeParent=1;resizeParentMax=0;resizeLast=0;collapsible=1;marginBottom=0;whiteSpace=wrap;html=1;" vertex="1" parent="1">
          <mxGeometry x="250" y="150" width="160" height="68" as="geometry" />
        </mxCell>
        <mxCell id="Xc-XXmzlWd92s_JF-DMT-5" value="name: String&lt;br&gt;age: int" style="text;strokeColor=none;fillColor=none;align=left;verticalAlign=top;spacingLeft=4;spacingRight=4;overflow=hidden;rotatable=0;points=[[0,0.5],[1,0.5]];portConstraint=eastwest;whiteSpace=wrap;html=1;" vertex="1" parent="Xc-XXmzlWd92s_JF-DMT-4">
          <mxGeometry y="26" width="160" height="34" as="geometry" />
        </mxCell>
        <mxCell id="Xc-XXmzlWd92s_JF-DMT-6" value="" style="line;strokeWidth=1;fillColor=none;align=left;verticalAlign=middle;spacingTop=-1;spacingLeft=3;spacingRight=3;rotatable=0;labelPosition=right;points=[];portConstraint=eastwest;strokeColor=inherit;" vertex="1" parent="Xc-XXmzlWd92s_JF-DMT-4">
          <mxGeometry y="60" width="160" height="8" as="geometry" />
        </mxCell>
        <mxCell id="Xc-XXmzlWd92s_JF-DMT-9" value="Horse" style="swimlane;fontStyle=1;align=center;verticalAlign=top;childLayout=stackLayout;horizontal=1;startSize=26;horizontalStack=0;resizeParent=1;resizeParentMax=0;resizeLast=0;collapsible=1;marginBottom=0;whiteSpace=wrap;html=1;" vertex="1" parent="1">
          <mxGeometry x="250" y="235" width="160" height="34" as="geometry" />
        </mxCell>
        <mxCell id="Xc-XXmzlWd92s_JF-DMT-11" value="" style="line;strokeWidth=1;fillColor=none;align=left;verticalAlign=middle;spacingTop=-1;spacingLeft=3;spacingRight=3;rotatable=0;labelPosition=right;points=[];portConstraint=eastwest;strokeColor=inherit;" vertex="1" parent="Xc-XXmzlWd92s_JF-DMT-9">
          <mxGeometry y="26" width="160" height="8" as="geometry" />
        </mxCell>
        <mxCell id="Xc-XXmzlWd92s_JF-DMT-17" style="edgeStyle=orthogonalEdgeStyle;rounded=0;orthogonalLoop=1;jettySize=auto;html=1;" edge="1" parent="1" source="Xc-XXmzlWd92s_JF-DMT-13" target="Xc-XXmzlWd92s_JF-DMT-18">
          <mxGeometry relative="1" as="geometry">
            <mxPoint x="640" y="240" as="targetPoint" />
          </mxGeometry>
        </mxCell>
        <mxCell id="Xc-XXmzlWd92s_JF-DMT-40" style="edgeStyle=orthogonalEdgeStyle;rounded=0;orthogonalLoop=1;jettySize=auto;html=1;exitX=0.5;exitY=1;exitDx=0;exitDy=0;" edge="1" parent="1" source="Xc-XXmzlWd92s_JF-DMT-13" target="Xc-XXmzlWd92s_JF-DMT-36">
          <mxGeometry relative="1" as="geometry" />
        </mxCell>
        <mxCell id="Xc-XXmzlWd92s_JF-DMT-13" value="BodyPart" style="swimlane;fontStyle=1;align=center;verticalAlign=top;childLayout=stackLayout;horizontal=1;startSize=26;horizontalStack=0;resizeParent=1;resizeParentMax=0;resizeLast=0;collapsible=1;marginBottom=0;whiteSpace=wrap;html=1;" vertex="1" parent="1">
          <mxGeometry x="690" y="150" width="160" height="60" as="geometry" />
        </mxCell>
        <mxCell id="Xc-XXmzlWd92s_JF-DMT-14" value="+ name: String" style="text;strokeColor=none;fillColor=none;align=left;verticalAlign=top;spacingLeft=4;spacingRight=4;overflow=hidden;rotatable=0;points=[[0,0.5],[1,0.5]];portConstraint=eastwest;whiteSpace=wrap;html=1;" vertex="1" parent="Xc-XXmzlWd92s_JF-DMT-13">
          <mxGeometry y="26" width="160" height="26" as="geometry" />
        </mxCell>
        <mxCell id="Xc-XXmzlWd92s_JF-DMT-15" value="" style="line;strokeWidth=1;fillColor=none;align=left;verticalAlign=middle;spacingTop=-1;spacingLeft=3;spacingRight=3;rotatable=0;labelPosition=right;points=[];portConstraint=eastwest;strokeColor=inherit;" vertex="1" parent="Xc-XXmzlWd92s_JF-DMT-13">
          <mxGeometry y="52" width="160" height="8" as="geometry" />
        </mxCell>
        <mxCell id="Xc-XXmzlWd92s_JF-DMT-18" value="Eye" style="swimlane;fontStyle=1;align=center;verticalAlign=top;childLayout=stackLayout;horizontal=1;startSize=26;horizontalStack=0;resizeParent=1;resizeParentMax=0;resizeLast=0;collapsible=1;marginBottom=0;whiteSpace=wrap;html=1;" vertex="1" parent="1">
          <mxGeometry x="560" y="250" width="160" height="34" as="geometry" />
        </mxCell>
        <mxCell id="Xc-XXmzlWd92s_JF-DMT-20" value="" style="line;strokeWidth=1;fillColor=none;align=left;verticalAlign=middle;spacingTop=-1;spacingLeft=3;spacingRight=3;rotatable=0;labelPosition=right;points=[];portConstraint=eastwest;strokeColor=inherit;" vertex="1" parent="Xc-XXmzlWd92s_JF-DMT-18">
          <mxGeometry y="26" width="160" height="8" as="geometry" />
        </mxCell>
        <mxCell id="Xc-XXmzlWd92s_JF-DMT-36" value="Forehead" style="swimlane;fontStyle=1;align=center;verticalAlign=top;childLayout=stackLayout;horizontal=1;startSize=26;horizontalStack=0;resizeParent=1;resizeParentMax=0;resizeLast=0;collapsible=1;marginBottom=0;whiteSpace=wrap;html=1;" vertex="1" parent="1">
          <mxGeometry x="850" y="250" width="160" height="34" as="geometry" />
        </mxCell>
        <mxCell id="Xc-XXmzlWd92s_JF-DMT-38" value="" style="line;strokeWidth=1;fillColor=none;align=left;verticalAlign=middle;spacingTop=-1;spacingLeft=3;spacingRight=3;rotatable=0;labelPosition=right;points=[];portConstraint=eastwest;strokeColor=inherit;" vertex="1" parent="Xc-XXmzlWd92s_JF-DMT-36">
          <mxGeometry y="26" width="160" height="8" as="geometry" />
        </mxCell>
        <mxCell id="Xc-XXmzlWd92s_JF-DMT-41" value="MyNullPointerException" style="swimlane;fontStyle=1;align=center;verticalAlign=top;childLayout=stackLayout;horizontal=1;startSize=26;horizontalStack=0;resizeParent=1;resizeParentMax=0;resizeLast=0;collapsible=1;marginBottom=0;whiteSpace=wrap;html=1;" vertex="1" parent="1">
          <mxGeometry x="1120" y="150" width="160" height="34" as="geometry" />
        </mxCell>
        <mxCell id="Xc-XXmzlWd92s_JF-DMT-43" value="" style="line;strokeWidth=1;fillColor=none;align=left;verticalAlign=middle;spacingTop=-1;spacingLeft=3;spacingRight=3;rotatable=0;labelPosition=right;points=[];portConstraint=eastwest;strokeColor=inherit;" vertex="1" parent="Xc-XXmzlWd92s_JF-DMT-41">
          <mxGeometry y="26" width="160" height="8" as="geometry" />
        </mxCell>
        <mxCell id="Xc-XXmzlWd92s_JF-DMT-45" value="InvalidLanguageException" style="swimlane;fontStyle=1;align=center;verticalAlign=top;childLayout=stackLayout;horizontal=1;startSize=26;horizontalStack=0;resizeParent=1;resizeParentMax=0;resizeLast=0;collapsible=1;marginBottom=0;whiteSpace=wrap;html=1;" vertex="1" parent="1">
          <mxGeometry x="1360" y="150" width="160" height="34" as="geometry" />
        </mxCell>
        <mxCell id="Xc-XXmzlWd92s_JF-DMT-47" value="" style="line;strokeWidth=1;fillColor=none;align=left;verticalAlign=middle;spacingTop=-1;spacingLeft=3;spacingRight=3;rotatable=0;labelPosition=right;points=[];portConstraint=eastwest;strokeColor=inherit;" vertex="1" parent="Xc-XXmzlWd92s_JF-DMT-45">
          <mxGeometry y="26" width="160" height="8" as="geometry" />
        </mxCell>
        <mxCell id="Xc-XXmzlWd92s_JF-DMT-49" value="Person" style="swimlane;fontStyle=1;align=center;verticalAlign=top;childLayout=stackLayout;horizontal=1;startSize=26;horizontalStack=0;resizeParent=1;resizeParentMax=0;resizeLast=0;collapsible=1;marginBottom=0;whiteSpace=wrap;html=1;" vertex="1" parent="1">
          <mxGeometry x="760" y="400" width="160" height="134" as="geometry" />
        </mxCell>
        <mxCell id="Xc-XXmzlWd92s_JF-DMT-50" value="name: Sting&lt;br&gt;age: int&lt;br&gt;gender: Gender&lt;br&gt;places: Places" style="text;strokeColor=none;fillColor=none;align=left;verticalAlign=top;spacingLeft=4;spacingRight=4;overflow=hidden;rotatable=0;points=[[0,0.5],[1,0.5]];portConstraint=eastwest;whiteSpace=wrap;html=1;" vertex="1" parent="Xc-XXmzlWd92s_JF-DMT-49">
          <mxGeometry y="26" width="160" height="74" as="geometry" />
        </mxCell>
        <mxCell id="Xc-XXmzlWd92s_JF-DMT-51" value="" style="line;strokeWidth=1;fillColor=none;align=left;verticalAlign=middle;spacingTop=-1;spacingLeft=3;spacingRight=3;rotatable=0;labelPosition=right;points=[];portConstraint=eastwest;strokeColor=inherit;" vertex="1" parent="Xc-XXmzlWd92s_JF-DMT-49">
          <mxGeometry y="100" width="160" height="8" as="geometry" />
        </mxCell>
        <mxCell id="Xc-XXmzlWd92s_JF-DMT-52" value="+ method(type): type" style="text;strokeColor=none;fillColor=none;align=left;verticalAlign=top;spacingLeft=4;spacingRight=4;overflow=hidden;rotatable=0;points=[[0,0.5],[1,0.5]];portConstraint=eastwest;whiteSpace=wrap;html=1;" vertex="1" parent="Xc-XXmzlWd92s_JF-DMT-49">
          <mxGeometry y="108" width="160" height="26" as="geometry" />
        </mxCell>
        <mxCell id="Xc-XXmzlWd92s_JF-DMT-55" value="Baby" style="swimlane;fontStyle=1;align=center;verticalAlign=top;childLayout=stackLayout;horizontal=1;startSize=26;horizontalStack=0;resizeParent=1;resizeParentMax=0;resizeLast=0;collapsible=1;marginBottom=0;whiteSpace=wrap;html=1;" vertex="1" parent="1">
          <mxGeometry x="159.999979654948" y="630" width="160" height="90" as="geometry" />
        </mxCell>
        <mxCell id="Xc-XXmzlWd92s_JF-DMT-57" value="" style="line;strokeWidth=1;fillColor=none;align=left;verticalAlign=middle;spacingTop=-1;spacingLeft=3;spacingRight=3;rotatable=0;labelPosition=right;points=[];portConstraint=eastwest;strokeColor=inherit;" vertex="1" parent="Xc-XXmzlWd92s_JF-DMT-55">
          <mxGeometry y="26" width="160" height="8" as="geometry" />
        </mxCell>
        <mxCell id="Xc-XXmzlWd92s_JF-DMT-58" value="beKind(Person): Stirng&lt;br&gt;annoy(): String&lt;br&gt;draw(Animal): String" style="text;strokeColor=none;fillColor=none;align=left;verticalAlign=top;spacingLeft=4;spacingRight=4;overflow=hidden;rotatable=0;points=[[0,0.5],[1,0.5]];portConstraint=eastwest;whiteSpace=wrap;html=1;" vertex="1" parent="Xc-XXmzlWd92s_JF-DMT-55">
          <mxGeometry y="34" width="160" height="56" as="geometry" />
        </mxCell>
        <mxCell id="Xc-XXmzlWd92s_JF-DMT-53" style="edgeStyle=orthogonalEdgeStyle;rounded=0;orthogonalLoop=1;jettySize=auto;html=1;exitX=0;exitY=0.5;exitDx=0;exitDy=0;" edge="1" parent="1" source="Xc-XXmzlWd92s_JF-DMT-50" target="Xc-XXmzlWd92s_JF-DMT-55">
          <mxGeometry relative="1" as="geometry">
            <mxPoint x="327.99997965494794" y="560" as="targetPoint" />
          </mxGeometry>
        </mxCell>
        <mxCell id="Xc-XXmzlWd92s_JF-DMT-60" value="«interface»&lt;br&gt;&lt;b&gt;BabyAction&lt;/b&gt;" style="html=1;whiteSpace=wrap;" vertex="1" parent="1">
          <mxGeometry x="-50" y="650" width="110" height="50" as="geometry" />
        </mxCell>
        <mxCell id="Xc-XXmzlWd92s_JF-DMT-61" style="edgeStyle=orthogonalEdgeStyle;rounded=0;orthogonalLoop=1;jettySize=auto;html=1;entryX=1;entryY=0.5;entryDx=0;entryDy=0;exitX=-0.017;exitY=0.198;exitDx=0;exitDy=0;exitPerimeter=0;" edge="1" parent="1" source="Xc-XXmzlWd92s_JF-DMT-58" target="Xc-XXmzlWd92s_JF-DMT-60">
          <mxGeometry relative="1" as="geometry">
            <mxPoint x="110" y="590" as="sourcePoint" />
          </mxGeometry>
        </mxCell>
        <mxCell id="Xc-XXmzlWd92s_JF-DMT-64" value="Betan" style="swimlane;fontStyle=1;align=center;verticalAlign=top;childLayout=stackLayout;horizontal=1;startSize=26;horizontalStack=0;resizeParent=1;resizeParentMax=0;resizeLast=0;collapsible=1;marginBottom=0;whiteSpace=wrap;html=1;" vertex="1" parent="1">
          <mxGeometry x="400" y="630" width="160" height="100" as="geometry" />
        </mxCell>
        <mxCell id="Xc-XXmzlWd92s_JF-DMT-66" value="" style="line;strokeWidth=1;fillColor=none;align=left;verticalAlign=middle;spacingTop=-1;spacingLeft=3;spacingRight=3;rotatable=0;labelPosition=right;points=[];portConstraint=eastwest;strokeColor=inherit;" vertex="1" parent="Xc-XXmzlWd92s_JF-DMT-64">
          <mxGeometry y="26" width="160" height="8" as="geometry" />
        </mxCell>
        <mxCell id="Xc-XXmzlWd92s_JF-DMT-67" value="+ escape(Thing): String&lt;br&gt;+ avoid(Person): String&lt;br&gt;+ avoid(BodyPart): String&lt;br&gt;+ avoid(String): String" style="text;strokeColor=none;fillColor=none;align=left;verticalAlign=top;spacingLeft=4;spacingRight=4;overflow=hidden;rotatable=0;points=[[0,0.5],[1,0.5]];portConstraint=eastwest;whiteSpace=wrap;html=1;" vertex="1" parent="Xc-XXmzlWd92s_JF-DMT-64">
          <mxGeometry y="34" width="160" height="66" as="geometry" />
        </mxCell>
        <mxCell id="Xc-XXmzlWd92s_JF-DMT-63" style="edgeStyle=orthogonalEdgeStyle;rounded=0;orthogonalLoop=1;jettySize=auto;html=1;exitX=0;exitY=0.5;exitDx=0;exitDy=0;" edge="1" parent="1" source="Xc-XXmzlWd92s_JF-DMT-50" target="Xc-XXmzlWd92s_JF-DMT-64">
          <mxGeometry relative="1" as="geometry">
            <mxPoint x="600" y="630" as="targetPoint" />
          </mxGeometry>
        </mxCell>
        <mxCell id="Xc-XXmzlWd92s_JF-DMT-69" value="Bosse" style="swimlane;fontStyle=1;align=center;verticalAlign=top;childLayout=stackLayout;horizontal=1;startSize=26;horizontalStack=0;resizeParent=1;resizeParentMax=0;resizeLast=0;collapsible=1;marginBottom=0;whiteSpace=wrap;html=1;" vertex="1" parent="1">
          <mxGeometry x="640" y="630" width="160" height="100" as="geometry" />
        </mxCell>
        <mxCell id="Xc-XXmzlWd92s_JF-DMT-71" value="" style="line;strokeWidth=1;fillColor=none;align=left;verticalAlign=middle;spacingTop=-1;spacingLeft=3;spacingRight=3;rotatable=0;labelPosition=right;points=[];portConstraint=eastwest;strokeColor=inherit;" vertex="1" parent="Xc-XXmzlWd92s_JF-DMT-69">
          <mxGeometry y="26" width="160" height="8" as="geometry" />
        </mxCell>
        <mxCell id="Xc-XXmzlWd92s_JF-DMT-72" value="+ escape(Thing): String&lt;br style=&quot;border-color: var(--border-color);&quot;&gt;+ avoid(Person): String&lt;br style=&quot;border-color: var(--border-color);&quot;&gt;+ avoid(BodyPart): String" style="text;strokeColor=none;fillColor=none;align=left;verticalAlign=top;spacingLeft=4;spacingRight=4;overflow=hidden;rotatable=0;points=[[0,0.5],[1,0.5]];portConstraint=eastwest;whiteSpace=wrap;html=1;" vertex="1" parent="Xc-XXmzlWd92s_JF-DMT-69">
          <mxGeometry y="34" width="160" height="66" as="geometry" />
        </mxCell>
        <mxCell id="Xc-XXmzlWd92s_JF-DMT-68" style="edgeStyle=orthogonalEdgeStyle;rounded=0;orthogonalLoop=1;jettySize=auto;html=1;exitX=0;exitY=0.5;exitDx=0;exitDy=0;entryX=0.5;entryY=0;entryDx=0;entryDy=0;" edge="1" parent="1" source="Xc-XXmzlWd92s_JF-DMT-50" target="Xc-XXmzlWd92s_JF-DMT-69">
          <mxGeometry relative="1" as="geometry">
            <mxPoint x="710" y="580" as="targetPoint" />
          </mxGeometry>
        </mxCell>
        <mxCell id="Xc-XXmzlWd92s_JF-DMT-73" value="Father" style="swimlane;fontStyle=1;align=center;verticalAlign=top;childLayout=stackLayout;horizontal=1;startSize=26;horizontalStack=0;resizeParent=1;resizeParentMax=0;resizeLast=0;collapsible=1;marginBottom=0;whiteSpace=wrap;html=1;" vertex="1" parent="1">
          <mxGeometry x="930" y="630" width="160" height="90" as="geometry" />
        </mxCell>
        <mxCell id="Xc-XXmzlWd92s_JF-DMT-75" value="" style="line;strokeWidth=1;fillColor=none;align=left;verticalAlign=middle;spacingTop=-1;spacingLeft=3;spacingRight=3;rotatable=0;labelPosition=right;points=[];portConstraint=eastwest;strokeColor=inherit;" vertex="1" parent="Xc-XXmzlWd92s_JF-DMT-73">
          <mxGeometry y="26" width="160" height="8" as="geometry" />
        </mxCell>
        <mxCell id="Xc-XXmzlWd92s_JF-DMT-76" value="+ silent(): String&lt;br&gt;+ tense(): String" style="text;strokeColor=none;fillColor=none;align=left;verticalAlign=top;spacingLeft=4;spacingRight=4;overflow=hidden;rotatable=0;points=[[0,0.5],[1,0.5]];portConstraint=eastwest;whiteSpace=wrap;html=1;" vertex="1" parent="Xc-XXmzlWd92s_JF-DMT-73">
          <mxGeometry y="34" width="160" height="56" as="geometry" />
        </mxCell>
        <mxCell id="Xc-XXmzlWd92s_JF-DMT-77" style="edgeStyle=orthogonalEdgeStyle;rounded=0;orthogonalLoop=1;jettySize=auto;html=1;exitX=1;exitY=0.5;exitDx=0;exitDy=0;entryX=0.5;entryY=0;entryDx=0;entryDy=0;" edge="1" parent="1" source="Xc-XXmzlWd92s_JF-DMT-50" target="Xc-XXmzlWd92s_JF-DMT-73">
          <mxGeometry relative="1" as="geometry" />
        </mxCell>
        <mxCell id="Xc-XXmzlWd92s_JF-DMT-79" value="&lt;p style=&quot;margin:0px;margin-top:4px;text-align:center;&quot;&gt;&lt;br&gt;&lt;b&gt;Gender&lt;/b&gt;&lt;/p&gt;&lt;p style=&quot;margin:0px;margin-top:4px;text-align:center;&quot;&gt;&lt;b&gt;Man&lt;/b&gt;&lt;/p&gt;&lt;p style=&quot;margin:0px;margin-top:4px;text-align:center;&quot;&gt;&lt;b&gt;Woman&lt;/b&gt;&lt;/p&gt;" style="verticalAlign=top;align=left;overflow=fill;fontSize=12;fontFamily=Helvetica;html=1;whiteSpace=wrap;" vertex="1" parent="1">
          <mxGeometry x="-50" y="810" width="140" height="80" as="geometry" />
        </mxCell>
        <mxCell id="Xc-XXmzlWd92s_JF-DMT-80" value="Mother" style="swimlane;fontStyle=1;align=center;verticalAlign=top;childLayout=stackLayout;horizontal=1;startSize=26;horizontalStack=0;resizeParent=1;resizeParentMax=0;resizeLast=0;collapsible=1;marginBottom=0;whiteSpace=wrap;html=1;" vertex="1" parent="1">
          <mxGeometry x="1190" y="630" width="160" height="90" as="geometry" />
        </mxCell>
        <mxCell id="Xc-XXmzlWd92s_JF-DMT-82" value="" style="line;strokeWidth=1;fillColor=none;align=left;verticalAlign=middle;spacingTop=-1;spacingLeft=3;spacingRight=3;rotatable=0;labelPosition=right;points=[];portConstraint=eastwest;strokeColor=inherit;" vertex="1" parent="Xc-XXmzlWd92s_JF-DMT-80">
          <mxGeometry y="26" width="160" height="8" as="geometry" />
        </mxCell>
        <mxCell id="Xc-XXmzlWd92s_JF-DMT-83" value="+ silent(): String&lt;br style=&quot;border-color: var(--border-color);&quot;&gt;+ tense(): String&lt;br&gt;+ Say(): String" style="text;strokeColor=none;fillColor=none;align=left;verticalAlign=top;spacingLeft=4;spacingRight=4;overflow=hidden;rotatable=0;points=[[0,0.5],[1,0.5]];portConstraint=eastwest;whiteSpace=wrap;html=1;" vertex="1" parent="Xc-XXmzlWd92s_JF-DMT-80">
          <mxGeometry y="34" width="160" height="56" as="geometry" />
        </mxCell>
        <mxCell id="Xc-XXmzlWd92s_JF-DMT-84" style="edgeStyle=orthogonalEdgeStyle;rounded=0;orthogonalLoop=1;jettySize=auto;html=1;exitX=1;exitY=0.5;exitDx=0;exitDy=0;entryX=0.5;entryY=0;entryDx=0;entryDy=0;" edge="1" parent="1" source="Xc-XXmzlWd92s_JF-DMT-50" target="Xc-XXmzlWd92s_JF-DMT-80">
          <mxGeometry relative="1" as="geometry" />
        </mxCell>
        <mxCell id="Xc-XXmzlWd92s_JF-DMT-85" value="GroupOfPeople" style="swimlane;fontStyle=1;align=center;verticalAlign=top;childLayout=stackLayout;horizontal=1;startSize=26;horizontalStack=0;resizeParent=1;resizeParentMax=0;resizeLast=0;collapsible=1;marginBottom=0;whiteSpace=wrap;html=1;" vertex="1" parent="1">
          <mxGeometry x="145" y="810" width="190" height="110" as="geometry" />
        </mxCell>
        <mxCell id="Xc-XXmzlWd92s_JF-DMT-87" value="" style="line;strokeWidth=1;fillColor=none;align=left;verticalAlign=middle;spacingTop=-1;spacingLeft=3;spacingRight=3;rotatable=0;labelPosition=right;points=[];portConstraint=eastwest;strokeColor=inherit;" vertex="1" parent="Xc-XXmzlWd92s_JF-DMT-85">
          <mxGeometry y="26" width="190" height="8" as="geometry" />
        </mxCell>
        <mxCell id="Xc-XXmzlWd92s_JF-DMT-88" value="+ group(Person, Person): String&lt;br&gt;+ beKind(Person): String&lt;br&gt;+ avoid(Person): String&lt;br&gt;+ ecape(Person): String&lt;br&gt;&lt;br style=&quot;border-color: var(--border-color);&quot;&gt;&amp;nbsp;" style="text;strokeColor=none;fillColor=none;align=left;verticalAlign=top;spacingLeft=4;spacingRight=4;overflow=hidden;rotatable=0;points=[[0,0.5],[1,0.5]];portConstraint=eastwest;whiteSpace=wrap;html=1;" vertex="1" parent="Xc-XXmzlWd92s_JF-DMT-85">
          <mxGeometry y="34" width="190" height="76" as="geometry" />
        </mxCell>
        <mxCell id="Xc-XXmzlWd92s_JF-DMT-89" value="Storyteller" style="swimlane;fontStyle=1;align=center;verticalAlign=top;childLayout=stackLayout;horizontal=1;startSize=26;horizontalStack=0;resizeParent=1;resizeParentMax=0;resizeLast=0;collapsible=1;marginBottom=0;whiteSpace=wrap;html=1;" vertex="1" parent="1">
          <mxGeometry x="1430" y="630" width="160" height="80" as="geometry" />
        </mxCell>
        <mxCell id="Xc-XXmzlWd92s_JF-DMT-91" value="" style="line;strokeWidth=1;fillColor=none;align=left;verticalAlign=middle;spacingTop=-1;spacingLeft=3;spacingRight=3;rotatable=0;labelPosition=right;points=[];portConstraint=eastwest;strokeColor=inherit;" vertex="1" parent="Xc-XXmzlWd92s_JF-DMT-89">
          <mxGeometry y="26" width="160" height="8" as="geometry" />
        </mxCell>
        <mxCell id="Xc-XXmzlWd92s_JF-DMT-92" value="+ regeret(Person): String&lt;br&gt;+ beKind(Person): String&amp;nbsp; &amp;nbsp;" style="text;strokeColor=none;fillColor=none;align=left;verticalAlign=top;spacingLeft=4;spacingRight=4;overflow=hidden;rotatable=0;points=[[0,0.5],[1,0.5]];portConstraint=eastwest;whiteSpace=wrap;html=1;" vertex="1" parent="Xc-XXmzlWd92s_JF-DMT-89">
          <mxGeometry y="34" width="160" height="46" as="geometry" />
        </mxCell>
        <mxCell id="Xc-XXmzlWd92s_JF-DMT-93" style="edgeStyle=orthogonalEdgeStyle;rounded=0;orthogonalLoop=1;jettySize=auto;html=1;exitX=1;exitY=0.5;exitDx=0;exitDy=0;entryX=0.576;entryY=-0.027;entryDx=0;entryDy=0;entryPerimeter=0;" edge="1" parent="1" source="Xc-XXmzlWd92s_JF-DMT-50" target="Xc-XXmzlWd92s_JF-DMT-89">
          <mxGeometry relative="1" as="geometry" />
        </mxCell>
        <mxCell id="Xc-XXmzlWd92s_JF-DMT-94" value="Swatensons" style="swimlane;fontStyle=1;align=center;verticalAlign=top;childLayout=stackLayout;horizontal=1;startSize=26;horizontalStack=0;resizeParent=1;resizeParentMax=0;resizeLast=0;collapsible=1;marginBottom=0;whiteSpace=wrap;html=1;" vertex="1" parent="1">
          <mxGeometry x="400" y="810" width="160" height="86" as="geometry" />
        </mxCell>
        <mxCell id="Xc-XXmzlWd92s_JF-DMT-95" value="+ name: String" style="text;strokeColor=none;fillColor=none;align=left;verticalAlign=top;spacingLeft=4;spacingRight=4;overflow=hidden;rotatable=0;points=[[0,0.5],[1,0.5]];portConstraint=eastwest;whiteSpace=wrap;html=1;" vertex="1" parent="Xc-XXmzlWd92s_JF-DMT-94">
          <mxGeometry y="26" width="160" height="26" as="geometry" />
        </mxCell>
        <mxCell id="Xc-XXmzlWd92s_JF-DMT-96" value="" style="line;strokeWidth=1;fillColor=none;align=left;verticalAlign=middle;spacingTop=-1;spacingLeft=3;spacingRight=3;rotatable=0;labelPosition=right;points=[];portConstraint=eastwest;strokeColor=inherit;" vertex="1" parent="Xc-XXmzlWd92s_JF-DMT-94">
          <mxGeometry y="52" width="160" height="8" as="geometry" />
        </mxCell>
        <mxCell id="Xc-XXmzlWd92s_JF-DMT-97" value="+ cry(Person): String" style="text;strokeColor=none;fillColor=none;align=left;verticalAlign=top;spacingLeft=4;spacingRight=4;overflow=hidden;rotatable=0;points=[[0,0.5],[1,0.5]];portConstraint=eastwest;whiteSpace=wrap;html=1;" vertex="1" parent="Xc-XXmzlWd92s_JF-DMT-94">
          <mxGeometry y="60" width="160" height="26" as="geometry" />
        </mxCell>
        <mxCell id="Xc-XXmzlWd92s_JF-DMT-98" value="UncleUlius" style="swimlane;fontStyle=1;align=center;verticalAlign=top;childLayout=stackLayout;horizontal=1;startSize=26;horizontalStack=0;resizeParent=1;resizeParentMax=0;resizeLast=0;collapsible=1;marginBottom=0;whiteSpace=wrap;html=1;" vertex="1" parent="1">
          <mxGeometry x="1700" y="630" width="190" height="220" as="geometry" />
        </mxCell>
        <mxCell id="Xc-XXmzlWd92s_JF-DMT-100" value="" style="line;strokeWidth=1;fillColor=none;align=left;verticalAlign=middle;spacingTop=-1;spacingLeft=3;spacingRight=3;rotatable=0;labelPosition=right;points=[];portConstraint=eastwest;strokeColor=inherit;" vertex="1" parent="Xc-XXmzlWd92s_JF-DMT-98">
          <mxGeometry y="26" width="190" height="8" as="geometry" />
        </mxCell>
        <mxCell id="Xc-XXmzlWd92s_JF-DMT-101" value="+ beRelative(Person): String&lt;br&gt;+ remain(Place): String&lt;br&gt;+ torment(Person): String&lt;br&gt;+ cry(): String&lt;br&gt;+ step(Thing): String&lt;br&gt;+ picky(Thing): String&lt;br&gt;+ visit(Place): String&lt;br&gt;+ have(Thing): String&lt;br&gt;+ spent(Thing): String&lt;br&gt;+ go(Place): String&lt;br&gt;+ resist(): String&lt;br&gt;+ say(String): String" style="text;strokeColor=none;fillColor=none;align=left;verticalAlign=top;spacingLeft=4;spacingRight=4;overflow=hidden;rotatable=0;points=[[0,0.5],[1,0.5]];portConstraint=eastwest;whiteSpace=wrap;html=1;" vertex="1" parent="Xc-XXmzlWd92s_JF-DMT-98">
          <mxGeometry y="34" width="190" height="186" as="geometry" />
        </mxCell>
        <mxCell id="Xc-XXmzlWd92s_JF-DMT-102" style="edgeStyle=orthogonalEdgeStyle;rounded=0;orthogonalLoop=1;jettySize=auto;html=1;exitX=1;exitY=0.5;exitDx=0;exitDy=0;entryX=0.5;entryY=0;entryDx=0;entryDy=0;" edge="1" parent="1" source="Xc-XXmzlWd92s_JF-DMT-50" target="Xc-XXmzlWd92s_JF-DMT-98">
          <mxGeometry relative="1" as="geometry" />
        </mxCell>
        <mxCell id="Xc-XXmzlWd92s_JF-DMT-103" value="«interface»&lt;br&gt;&lt;b&gt;UncleUliusActions&lt;/b&gt;" style="html=1;whiteSpace=wrap;" vertex="1" parent="1">
          <mxGeometry x="1740" y="910" width="110" height="50" as="geometry" />
        </mxCell>
        <mxCell id="Xc-XXmzlWd92s_JF-DMT-105" style="edgeStyle=orthogonalEdgeStyle;rounded=0;orthogonalLoop=1;jettySize=auto;html=1;entryX=0.579;entryY=0.999;entryDx=0;entryDy=0;entryPerimeter=0;" edge="1" parent="1" source="Xc-XXmzlWd92s_JF-DMT-103" target="Xc-XXmzlWd92s_JF-DMT-101">
          <mxGeometry relative="1" as="geometry">
            <Array as="points">
              <mxPoint x="1800" y="880" />
              <mxPoint x="1810" y="880" />
            </Array>
          </mxGeometry>
        </mxCell>
        <mxCell id="Xc-XXmzlWd92s_JF-DMT-107" value="YoungMan" style="swimlane;fontStyle=1;align=center;verticalAlign=top;childLayout=stackLayout;horizontal=1;startSize=26;horizontalStack=0;resizeParent=1;resizeParentMax=0;resizeLast=0;collapsible=1;marginBottom=0;whiteSpace=wrap;html=1;" vertex="1" parent="1">
          <mxGeometry x="2030" y="630" width="190" height="80" as="geometry" />
        </mxCell>
        <mxCell id="Xc-XXmzlWd92s_JF-DMT-109" value="" style="line;strokeWidth=1;fillColor=none;align=left;verticalAlign=middle;spacingTop=-1;spacingLeft=3;spacingRight=3;rotatable=0;labelPosition=right;points=[];portConstraint=eastwest;strokeColor=inherit;" vertex="1" parent="Xc-XXmzlWd92s_JF-DMT-107">
          <mxGeometry y="26" width="190" height="8" as="geometry" />
        </mxCell>
        <mxCell id="Xc-XXmzlWd92s_JF-DMT-110" value="+ beRelative(Person): String&lt;br&gt;+ beKind(Person): String" style="text;strokeColor=none;fillColor=none;align=left;verticalAlign=top;spacingLeft=4;spacingRight=4;overflow=hidden;rotatable=0;points=[[0,0.5],[1,0.5]];portConstraint=eastwest;whiteSpace=wrap;html=1;" vertex="1" parent="Xc-XXmzlWd92s_JF-DMT-107">
          <mxGeometry y="34" width="190" height="46" as="geometry" />
        </mxCell>
        <mxCell id="Xc-XXmzlWd92s_JF-DMT-111" style="edgeStyle=orthogonalEdgeStyle;rounded=0;orthogonalLoop=1;jettySize=auto;html=1;entryX=0.5;entryY=0;entryDx=0;entryDy=0;" edge="1" parent="1" source="Xc-XXmzlWd92s_JF-DMT-50" target="Xc-XXmzlWd92s_JF-DMT-107">
          <mxGeometry relative="1" as="geometry" />
        </mxCell>
        <mxCell id="Xc-XXmzlWd92s_JF-DMT-112" value="«interface»&lt;br&gt;&lt;b&gt;YoungManActions&lt;/b&gt;" style="html=1;whiteSpace=wrap;" vertex="1" parent="1">
          <mxGeometry x="2070" y="790" width="110" height="40" as="geometry" />
        </mxCell>
        <mxCell id="Xc-XXmzlWd92s_JF-DMT-113" style="edgeStyle=orthogonalEdgeStyle;rounded=0;orthogonalLoop=1;jettySize=auto;html=1;entryX=0.474;entryY=1;entryDx=0;entryDy=0;entryPerimeter=0;" edge="1" parent="1" source="Xc-XXmzlWd92s_JF-DMT-112" target="Xc-XXmzlWd92s_JF-DMT-110">
          <mxGeometry relative="1" as="geometry" />
        </mxCell>
        <mxCell id="Xc-XXmzlWd92s_JF-DMT-114" value="Place" style="swimlane;fontStyle=1;align=center;verticalAlign=top;childLayout=stackLayout;horizontal=1;startSize=26;horizontalStack=0;resizeParent=1;resizeParentMax=0;resizeLast=0;collapsible=1;marginBottom=0;whiteSpace=wrap;html=1;" vertex="1" parent="1">
          <mxGeometry x="-340" y="150" width="160" height="60" as="geometry" />
        </mxCell>
        <mxCell id="Xc-XXmzlWd92s_JF-DMT-115" value="+ name: String" style="text;strokeColor=none;fillColor=none;align=left;verticalAlign=top;spacingLeft=4;spacingRight=4;overflow=hidden;rotatable=0;points=[[0,0.5],[1,0.5]];portConstraint=eastwest;whiteSpace=wrap;html=1;" vertex="1" parent="Xc-XXmzlWd92s_JF-DMT-114">
          <mxGeometry y="26" width="160" height="26" as="geometry" />
        </mxCell>
        <mxCell id="Xc-XXmzlWd92s_JF-DMT-116" value="" style="line;strokeWidth=1;fillColor=none;align=left;verticalAlign=middle;spacingTop=-1;spacingLeft=3;spacingRight=3;rotatable=0;labelPosition=right;points=[];portConstraint=eastwest;strokeColor=inherit;" vertex="1" parent="Xc-XXmzlWd92s_JF-DMT-114">
          <mxGeometry y="52" width="160" height="8" as="geometry" />
        </mxCell>
        <mxCell id="Xc-XXmzlWd92s_JF-DMT-119" value="Town" style="swimlane;fontStyle=1;align=center;verticalAlign=top;childLayout=stackLayout;horizontal=1;startSize=26;horizontalStack=0;resizeParent=1;resizeParentMax=0;resizeLast=0;collapsible=1;marginBottom=0;whiteSpace=wrap;html=1;" vertex="1" parent="1">
          <mxGeometry x="-560" y="250" width="160" height="86" as="geometry" />
        </mxCell>
        <mxCell id="Xc-XXmzlWd92s_JF-DMT-120" value="+ hotel: Hotel" style="text;strokeColor=none;fillColor=none;align=left;verticalAlign=top;spacingLeft=4;spacingRight=4;overflow=hidden;rotatable=0;points=[[0,0.5],[1,0.5]];portConstraint=eastwest;whiteSpace=wrap;html=1;" vertex="1" parent="Xc-XXmzlWd92s_JF-DMT-119">
          <mxGeometry y="26" width="160" height="26" as="geometry" />
        </mxCell>
        <mxCell id="Xc-XXmzlWd92s_JF-DMT-121" value="" style="line;strokeWidth=1;fillColor=none;align=left;verticalAlign=middle;spacingTop=-1;spacingLeft=3;spacingRight=3;rotatable=0;labelPosition=right;points=[];portConstraint=eastwest;strokeColor=inherit;" vertex="1" parent="Xc-XXmzlWd92s_JF-DMT-119">
          <mxGeometry y="52" width="160" height="8" as="geometry" />
        </mxCell>
        <mxCell id="Xc-XXmzlWd92s_JF-DMT-122" value="+ buildHotel(): String" style="text;strokeColor=none;fillColor=none;align=left;verticalAlign=top;spacingLeft=4;spacingRight=4;overflow=hidden;rotatable=0;points=[[0,0.5],[1,0.5]];portConstraint=eastwest;whiteSpace=wrap;html=1;" vertex="1" parent="Xc-XXmzlWd92s_JF-DMT-119">
          <mxGeometry y="60" width="160" height="26" as="geometry" />
        </mxCell>
        <mxCell id="Xc-XXmzlWd92s_JF-DMT-127" value="House" style="swimlane;fontStyle=1;align=center;verticalAlign=top;childLayout=stackLayout;horizontal=1;startSize=26;horizontalStack=0;resizeParent=1;resizeParentMax=0;resizeLast=0;collapsible=1;marginBottom=0;whiteSpace=wrap;html=1;" vertex="1" parent="1">
          <mxGeometry x="-60" y="250" width="160" height="34" as="geometry" />
        </mxCell>
        <mxCell id="Xc-XXmzlWd92s_JF-DMT-129" value="" style="line;strokeWidth=1;fillColor=none;align=left;verticalAlign=middle;spacingTop=-1;spacingLeft=3;spacingRight=3;rotatable=0;labelPosition=right;points=[];portConstraint=eastwest;strokeColor=inherit;" vertex="1" parent="Xc-XXmzlWd92s_JF-DMT-127">
          <mxGeometry y="26" width="160" height="8" as="geometry" />
        </mxCell>
        <mxCell id="Xc-XXmzlWd92s_JF-DMT-131" style="edgeStyle=orthogonalEdgeStyle;rounded=0;orthogonalLoop=1;jettySize=auto;html=1;entryX=0.438;entryY=0;entryDx=0;entryDy=0;entryPerimeter=0;" edge="1" parent="1" source="Xc-XXmzlWd92s_JF-DMT-115" target="Xc-XXmzlWd92s_JF-DMT-119">
          <mxGeometry relative="1" as="geometry" />
        </mxCell>
        <mxCell id="Xc-XXmzlWd92s_JF-DMT-132" style="edgeStyle=orthogonalEdgeStyle;rounded=0;orthogonalLoop=1;jettySize=auto;html=1;entryX=0.542;entryY=-0.005;entryDx=0;entryDy=0;entryPerimeter=0;" edge="1" parent="1" source="Xc-XXmzlWd92s_JF-DMT-115" target="Xc-XXmzlWd92s_JF-DMT-127">
          <mxGeometry relative="1" as="geometry" />
        </mxCell>
        <mxCell id="Xc-XXmzlWd92s_JF-DMT-158" style="edgeStyle=orthogonalEdgeStyle;rounded=0;orthogonalLoop=1;jettySize=auto;html=1;exitX=0.5;exitY=1;exitDx=0;exitDy=0;entryX=0.5;entryY=0;entryDx=0;entryDy=0;" edge="1" parent="1" source="Xc-XXmzlWd92s_JF-DMT-133" target="Xc-XXmzlWd92s_JF-DMT-141">
          <mxGeometry relative="1" as="geometry" />
        </mxCell>
        <mxCell id="Xc-XXmzlWd92s_JF-DMT-133" value="Thing&lt;br&gt;" style="swimlane;fontStyle=1;align=center;verticalAlign=top;childLayout=stackLayout;horizontal=1;startSize=26;horizontalStack=0;resizeParent=1;resizeParentMax=0;resizeLast=0;collapsible=1;marginBottom=0;whiteSpace=wrap;html=1;" vertex="1" parent="1">
          <mxGeometry x="1910" y="150" width="160" height="68" as="geometry" />
        </mxCell>
        <mxCell id="Xc-XXmzlWd92s_JF-DMT-134" value="+ name: String&lt;br&gt;+ matereal: String" style="text;strokeColor=none;fillColor=none;align=left;verticalAlign=top;spacingLeft=4;spacingRight=4;overflow=hidden;rotatable=0;points=[[0,0.5],[1,0.5]];portConstraint=eastwest;whiteSpace=wrap;html=1;" vertex="1" parent="Xc-XXmzlWd92s_JF-DMT-133">
          <mxGeometry y="26" width="160" height="34" as="geometry" />
        </mxCell>
        <mxCell id="Xc-XXmzlWd92s_JF-DMT-135" value="" style="line;strokeWidth=1;fillColor=none;align=left;verticalAlign=middle;spacingTop=-1;spacingLeft=3;spacingRight=3;rotatable=0;labelPosition=right;points=[];portConstraint=eastwest;strokeColor=inherit;" vertex="1" parent="Xc-XXmzlWd92s_JF-DMT-133">
          <mxGeometry y="60" width="160" height="8" as="geometry" />
        </mxCell>
        <mxCell id="Xc-XXmzlWd92s_JF-DMT-137" value="Table" style="swimlane;fontStyle=1;align=center;verticalAlign=top;childLayout=stackLayout;horizontal=1;startSize=26;horizontalStack=0;resizeParent=1;resizeParentMax=0;resizeLast=0;collapsible=1;marginBottom=0;whiteSpace=wrap;html=1;" vertex="1" parent="1">
          <mxGeometry x="1650" y="250" width="160" height="34" as="geometry" />
        </mxCell>
        <mxCell id="Xc-XXmzlWd92s_JF-DMT-139" value="" style="line;strokeWidth=1;fillColor=none;align=left;verticalAlign=middle;spacingTop=-1;spacingLeft=3;spacingRight=3;rotatable=0;labelPosition=right;points=[];portConstraint=eastwest;strokeColor=inherit;" vertex="1" parent="Xc-XXmzlWd92s_JF-DMT-137">
          <mxGeometry y="26" width="160" height="8" as="geometry" />
        </mxCell>
        <mxCell id="Xc-XXmzlWd92s_JF-DMT-141" value="Scetch&lt;br&gt;" style="swimlane;fontStyle=1;align=center;verticalAlign=top;childLayout=stackLayout;horizontal=1;startSize=26;horizontalStack=0;resizeParent=1;resizeParentMax=0;resizeLast=0;collapsible=1;marginBottom=0;whiteSpace=wrap;html=1;" vertex="1" parent="1">
          <mxGeometry x="1908" y="250" width="160" height="34" as="geometry" />
        </mxCell>
        <mxCell id="Xc-XXmzlWd92s_JF-DMT-143" value="" style="line;strokeWidth=1;fillColor=none;align=left;verticalAlign=middle;spacingTop=-1;spacingLeft=3;spacingRight=3;rotatable=0;labelPosition=right;points=[];portConstraint=eastwest;strokeColor=inherit;" vertex="1" parent="Xc-XXmzlWd92s_JF-DMT-141">
          <mxGeometry y="26" width="160" height="8" as="geometry" />
        </mxCell>
        <mxCell id="Xc-XXmzlWd92s_JF-DMT-145" value="Money" style="swimlane;fontStyle=1;align=center;verticalAlign=top;childLayout=stackLayout;horizontal=1;startSize=26;horizontalStack=0;resizeParent=1;resizeParentMax=0;resizeLast=0;collapsible=1;marginBottom=0;whiteSpace=wrap;html=1;" vertex="1" parent="1">
          <mxGeometry x="2150" y="250" width="160" height="34" as="geometry" />
        </mxCell>
        <mxCell id="Xc-XXmzlWd92s_JF-DMT-147" value="" style="line;strokeWidth=1;fillColor=none;align=left;verticalAlign=middle;spacingTop=-1;spacingLeft=3;spacingRight=3;rotatable=0;labelPosition=right;points=[];portConstraint=eastwest;strokeColor=inherit;" vertex="1" parent="Xc-XXmzlWd92s_JF-DMT-145">
          <mxGeometry y="26" width="160" height="8" as="geometry" />
        </mxCell>
        <mxCell id="Xc-XXmzlWd92s_JF-DMT-149" value="Fold" style="swimlane;fontStyle=1;align=center;verticalAlign=top;childLayout=stackLayout;horizontal=1;startSize=26;horizontalStack=0;resizeParent=1;resizeParentMax=0;resizeLast=0;collapsible=1;marginBottom=0;whiteSpace=wrap;html=1;" vertex="1" parent="1">
          <mxGeometry x="2390" y="250" width="160" height="34" as="geometry" />
        </mxCell>
        <mxCell id="Xc-XXmzlWd92s_JF-DMT-151" value="" style="line;strokeWidth=1;fillColor=none;align=left;verticalAlign=middle;spacingTop=-1;spacingLeft=3;spacingRight=3;rotatable=0;labelPosition=right;points=[];portConstraint=eastwest;strokeColor=inherit;" vertex="1" parent="Xc-XXmzlWd92s_JF-DMT-149">
          <mxGeometry y="26" width="160" height="8" as="geometry" />
        </mxCell>
        <mxCell id="Xc-XXmzlWd92s_JF-DMT-153" value="Doorstep&lt;br&gt;" style="swimlane;fontStyle=1;align=center;verticalAlign=top;childLayout=stackLayout;horizontal=1;startSize=26;horizontalStack=0;resizeParent=1;resizeParentMax=0;resizeLast=0;collapsible=1;marginBottom=0;whiteSpace=wrap;html=1;" vertex="1" parent="1">
          <mxGeometry x="2650" y="250" width="160" height="34" as="geometry" />
        </mxCell>
        <mxCell id="Xc-XXmzlWd92s_JF-DMT-155" value="" style="line;strokeWidth=1;fillColor=none;align=left;verticalAlign=middle;spacingTop=-1;spacingLeft=3;spacingRight=3;rotatable=0;labelPosition=right;points=[];portConstraint=eastwest;strokeColor=inherit;" vertex="1" parent="Xc-XXmzlWd92s_JF-DMT-153">
          <mxGeometry y="26" width="160" height="8" as="geometry" />
        </mxCell>
        <mxCell id="Xc-XXmzlWd92s_JF-DMT-157" style="edgeStyle=orthogonalEdgeStyle;rounded=0;orthogonalLoop=1;jettySize=auto;html=1;entryX=0.5;entryY=0;entryDx=0;entryDy=0;" edge="1" parent="1" source="Xc-XXmzlWd92s_JF-DMT-134" target="Xc-XXmzlWd92s_JF-DMT-137">
          <mxGeometry relative="1" as="geometry" />
        </mxCell>
        <mxCell id="Xc-XXmzlWd92s_JF-DMT-159" style="edgeStyle=orthogonalEdgeStyle;rounded=0;orthogonalLoop=1;jettySize=auto;html=1;exitX=1;exitY=0.5;exitDx=0;exitDy=0;entryX=0.563;entryY=0;entryDx=0;entryDy=0;entryPerimeter=0;" edge="1" parent="1" source="Xc-XXmzlWd92s_JF-DMT-134" target="Xc-XXmzlWd92s_JF-DMT-145">
          <mxGeometry relative="1" as="geometry" />
        </mxCell>
        <mxCell id="Xc-XXmzlWd92s_JF-DMT-160" style="edgeStyle=orthogonalEdgeStyle;rounded=0;orthogonalLoop=1;jettySize=auto;html=1;exitX=1;exitY=0.5;exitDx=0;exitDy=0;" edge="1" parent="1" source="Xc-XXmzlWd92s_JF-DMT-134" target="Xc-XXmzlWd92s_JF-DMT-149">
          <mxGeometry relative="1" as="geometry" />
        </mxCell>
        <mxCell id="Xc-XXmzlWd92s_JF-DMT-161" style="edgeStyle=orthogonalEdgeStyle;rounded=0;orthogonalLoop=1;jettySize=auto;html=1;entryX=0.5;entryY=0;entryDx=0;entryDy=0;" edge="1" parent="1" source="Xc-XXmzlWd92s_JF-DMT-134" target="Xc-XXmzlWd92s_JF-DMT-153">
          <mxGeometry relative="1" as="geometry">
            <mxPoint x="2760" y="240" as="targetPoint" />
          </mxGeometry>
        </mxCell>
      </root>
    </mxGraphModel>
  </diagram>
</mxfile>
